# xmcd
#
# Track frame offsets: 
#        187
#        16062
#        31875
#        44612
#        61275
#        74950
#        87562
#        101687
#        115000
#        129200
#
# Disc length: 1846 seconds
#
# Revision: 2
# Processed by: cddbd v1.5.2PL0 Copyright (c) Steve Scherf et al.
# Submitted via: ExactAudioCopy v1.3
#
DISCID=8607340a
DTITLE=Anne Murray - New Kind of Feeling
DYEAR=1979
DGENRE=Country
TTITLE0=Shadows in the Moonlight
TTITLE1=You've Got What It Takes
TTITLE2=I Just Fall In Love Again
TTITLE3=Take This Heart
TTITLE4=Yucatan Cafe
TTITLE5=For No Reason At All
TTITLE6=Rainin' In My Heart
TTITLE7=That's Why I Love You
TTITLE8=(He Can't Help It If) He's Not You
TTITLE9=Heaven Is Here
EXTD=
EXTT0=
EXTT1=
EXTT2=
EXTT3=
EXTT4=
EXTT5=
EXTT6=
EXTT7=
EXTT8=
EXTT9=
PLAYORDER=
